<?xml version="1.0" encoding="utf-8"?>
<!-- Generator: Adobe Illustrator 24.2.1, SVG Export Plug-In . SVG Version: 6.00 Build 0)  -->
<svg version="1.1" id="Ebene_1" xmlns="http://www.w3.org/2000/svg"
	xmlns:xlink="http://www.w3.org/1999/xlink" x="0px" y="0px"
	viewBox="0 0 436 114" style="enable-background:new 0 0 436 114;" xml:space="preserve">
<style type="text/css">
	.st0{fill:#4A4A49;}
	.st1{fill:#B51F1F;}
	.st2{fill:#B31D1C;}
	.st3{fill:#4D4B4B;}
</style>
<path class="st0" d="M175.5,73.2V36.7c0-12.1-9.7-17.9-23.9-17.9c-9,0-15.8,1.6-21.9,4.8l4.9,7.9c5-2.3,10.1-3.3,16.6-3.3
	c7.8,0,12,3.2,12,9v4c-3.5-1.3-8.3-2-14.2-2c-14.5,0-25.4,5.4-25.4,17.2c0,13.1,11.8,18,22.1,18c6.9,0,13.1-2.7,17.5-6.4v5.3H175.5
	L175.5,73.2z M163.3,58.1c-2.9,3.3-8.7,6.8-15.4,6.8c-8.3,0-12.3-3.6-12.3-8.8c0-4.9,5.1-7.9,13.1-7.9c6.8,0,11.2,0.9,14.6,2.3V58.1
	L163.3,58.1z M203.1,73.2V19.9h-12.5v53.3H203.1L203.1,73.2z M269,73.2l-20.2-27.6l18.8-25.7h-14.3l-4.9,7.3
	c-2.4,3.8-5.5,8.8-6.8,10.9c-1.1-2-4.1-6.8-6.7-10.7l-5-7.5h-14.5l18.7,25.7l-20,27.6h14.1l6.2-9.1c2.4-3.7,5.8-8.8,6.9-10.9
	c1.2,2,4.1,6.9,6.7,10.8l6.1,9.2H269L269,73.2z M292.7,73.2V19.9h-12.5v53.3H292.7L292.7,73.2z M427.8,46.3
	c0-16.6-12.1-27.5-28.4-27.5c-16,0-28.4,10.3-28.4,27.8c0,16.6,12,27.7,28.1,27.7C415.4,74.3,427.8,64,427.8,46.3L427.8,46.3z
	 M415.1,46.6c0,9.7-6.2,17.8-15.7,17.8c-9.5,0-15.9-6.4-15.9-18.1c0-10.5,5.8-17.5,15.3-17.5C408.9,28.8,415.1,35.8,415.1,46.6
	L415.1,46.6z"/>
<path class="st0" d="M356.7,27.8c-5.1-5.7-12.8-9-21.7-9c-16,0-28.4,10.3-28.4,27.8c0,16.6,12,27.7,28.1,27.7
	c16.4,0,28.8-10.3,28.8-28c0-2.1-0.2-4.2-0.6-6.1h-30.3V49h18.1c-0.9,8.6-6.8,15.4-15.5,15.4c-9.5,0-15.9-6.4-15.9-18.1
	c0-10.6,5.8-17.5,15.3-17.5c5.2,0,9.3,1.8,12.1,5.1L356.7,27.8L356.7,27.8z"/>
<g>
	<path class="st1" d="M125.8,101.6V87.9h3.4c2.1,0,3.7,0.6,4.8,1.8c1.1,1.2,1.7,2.9,1.7,5c0,1.1-0.1,2.1-0.4,2.9
		c-0.3,0.9-0.7,1.6-1.2,2.2c-0.5,0.6-1.2,1-2,1.4s-1.7,0.5-2.7,0.5H125.8z M127.5,100.2h1.6c1.6,0,2.8-0.5,3.6-1.4
		c0.8-1,1.2-2.3,1.2-4.1c0-1.7-0.4-3.1-1.2-4c-0.8-0.9-2-1.4-3.6-1.4h-1.6V100.2z"/>
	<path class="st1" d="M138.4,101.6V91.4h1.4l0.1,1.8h0.1c0.3-0.6,0.8-1.2,1.3-1.5c0.5-0.4,1-0.6,1.6-0.6c0.4,0,0.8,0.1,1.1,0.2
		l-0.3,1.5c-0.2-0.1-0.3-0.1-0.5-0.1s-0.3,0-0.5,0c-0.4,0-0.9,0.2-1.3,0.5c-0.5,0.3-0.9,1-1.2,1.8v6.5H138.4z"/>
	<path class="st1" d="M146.6,89.4c-0.3,0-0.6-0.1-0.8-0.3s-0.3-0.5-0.3-0.8c0-0.3,0.1-0.6,0.3-0.8s0.5-0.3,0.8-0.3
		c0.3,0,0.6,0.1,0.8,0.3s0.3,0.5,0.3,0.8c0,0.3-0.1,0.6-0.3,0.8S146.9,89.4,146.6,89.4z M145.7,101.6V91.4h1.7v10.2H145.7z"/>
	<path class="st1" d="M153,101.6l-3.7-10.2h1.8l1.9,5.8c0.2,0.5,0.3,1,0.5,1.5s0.3,1,0.5,1.5h0.1c0.2-0.5,0.3-1,0.5-1.5
		c0.2-0.5,0.3-1,0.5-1.5l1.9-5.8h1.7l-3.6,10.2H153z"/>
	<path class="st1" d="M161.5,89.4c-0.3,0-0.6-0.1-0.8-0.3s-0.3-0.5-0.3-0.8c0-0.3,0.1-0.6,0.3-0.8s0.5-0.3,0.8-0.3
		c0.3,0,0.6,0.1,0.8,0.3s0.3,0.5,0.3,0.8c0,0.3-0.1,0.6-0.3,0.8S161.8,89.4,161.5,89.4z M160.6,101.6V91.4h1.7v10.2H160.6z"/>
	<path class="st1" d="M165.8,101.6V91.4h1.4l0.1,1.5h0.1c0.5-0.5,1-0.9,1.5-1.2c0.5-0.3,1.2-0.5,1.9-0.5c1.1,0,1.9,0.3,2.4,1
		c0.5,0.7,0.7,1.7,0.7,3v6.4h-1.7v-6.2c0-1-0.2-1.7-0.5-2.1c-0.3-0.4-0.8-0.6-1.5-0.6c-0.5,0-1,0.1-1.4,0.4
		c-0.4,0.3-0.9,0.7-1.4,1.2v7.4H165.8z"/>
	<path class="st1" d="M180.6,106.3c-0.6,0-1.2-0.1-1.7-0.2c-0.5-0.1-1-0.3-1.3-0.5c-0.4-0.2-0.7-0.5-0.9-0.9
		c-0.2-0.3-0.3-0.7-0.3-1.2c0-0.4,0.1-0.8,0.4-1.2c0.3-0.4,0.6-0.7,1.1-1.1v-0.1c-0.3-0.2-0.5-0.4-0.6-0.6c-0.2-0.3-0.3-0.6-0.3-1
		c0-0.4,0.1-0.8,0.4-1.1c0.2-0.3,0.5-0.6,0.8-0.8v-0.1c-0.3-0.3-0.6-0.7-0.9-1.1c-0.3-0.5-0.4-1-0.4-1.6c0-0.6,0.1-1.1,0.3-1.5
		c0.2-0.4,0.5-0.8,0.8-1.1c0.3-0.3,0.8-0.6,1.2-0.7c0.5-0.2,1-0.3,1.5-0.3c0.3,0,0.5,0,0.8,0.1c0.2,0,0.5,0.1,0.7,0.2h3.5v1.3h-2.1
		c0.2,0.2,0.4,0.5,0.6,0.9c0.2,0.4,0.2,0.8,0.2,1.2c0,0.5-0.1,1-0.3,1.5c-0.2,0.4-0.5,0.8-0.8,1.1s-0.7,0.5-1.2,0.7
		c-0.5,0.2-0.9,0.2-1.5,0.2c-0.3,0-0.5,0-0.8-0.1s-0.5-0.1-0.8-0.3c-0.2,0.2-0.3,0.3-0.5,0.5s-0.2,0.4-0.2,0.7
		c0,0.3,0.1,0.6,0.4,0.8s0.7,0.3,1.4,0.3h2c1.2,0,2.1,0.2,2.7,0.6c0.6,0.4,0.9,1,0.9,1.9c0,0.5-0.1,0.9-0.4,1.3
		c-0.2,0.4-0.6,0.8-1,1.1c-0.4,0.3-1,0.6-1.6,0.8C182.1,106.2,181.4,106.3,180.6,106.3z M180.9,105.1c0.5,0,0.9-0.1,1.3-0.2
		c0.4-0.1,0.7-0.3,1-0.5s0.5-0.4,0.6-0.7c0.2-0.3,0.2-0.5,0.2-0.8c0-0.5-0.2-0.8-0.5-1c-0.3-0.2-0.9-0.3-1.5-0.3h-1.8
		c-0.2,0-0.4,0-0.6,0c-0.2,0-0.5-0.1-0.7-0.1c-0.4,0.3-0.6,0.5-0.8,0.8c-0.2,0.3-0.3,0.6-0.3,0.9c0,0.5,0.3,1,0.8,1.3
		C179.2,104.9,179.9,105.1,180.9,105.1z M180.6,97.2c0.3,0,0.6-0.1,0.8-0.2c0.3-0.1,0.5-0.3,0.7-0.5c0.2-0.2,0.4-0.5,0.5-0.8
		c0.1-0.3,0.2-0.6,0.2-1c0-0.8-0.2-1.3-0.6-1.7c-0.4-0.4-0.9-0.6-1.5-0.6c-0.6,0-1.1,0.2-1.5,0.6c-0.4,0.4-0.6,1-0.6,1.7
		c0,0.4,0.1,0.7,0.2,1c0.1,0.3,0.3,0.6,0.5,0.8s0.4,0.4,0.7,0.5C180.1,97.2,180.3,97.2,180.6,97.2z"/>
	<path class="st1" d="M195.1,101.9c-0.5,0-1-0.1-1.4-0.3c-0.4-0.2-0.7-0.4-0.9-0.7c-0.2-0.3-0.4-0.6-0.5-1.1
		c-0.1-0.4-0.1-0.9-0.1-1.4v-5.6h-1.5v-1.3l1.6-0.1l0.2-2.8h1.4v2.8h2.7v1.4h-2.7v5.6c0,0.6,0.1,1.1,0.3,1.5s0.6,0.5,1.2,0.5
		c0.2,0,0.4,0,0.6-0.1c0.2-0.1,0.4-0.1,0.6-0.2l0.3,1.3c-0.3,0.1-0.6,0.2-0.9,0.3S195.4,101.9,195.1,101.9z"/>
	<path class="st1" d="M199,101.6V86.7h1.7v4.1l-0.1,2.1c0.5-0.5,1-0.9,1.5-1.2s1.1-0.5,1.9-0.5c1.1,0,1.9,0.3,2.4,1
		c0.5,0.7,0.7,1.7,0.7,3v6.4h-1.7v-6.2c0-1-0.2-1.7-0.5-2.1c-0.3-0.4-0.8-0.6-1.5-0.6c-0.5,0-1,0.1-1.4,0.4
		c-0.4,0.3-0.9,0.7-1.4,1.2v7.4H199z"/>
	<path class="st1" d="M214.5,101.9c-0.7,0-1.3-0.1-1.9-0.4c-0.6-0.2-1.1-0.6-1.5-1c-0.4-0.5-0.8-1-1-1.7s-0.4-1.4-0.4-2.2
		c0-0.8,0.1-1.6,0.4-2.2s0.6-1.2,1-1.7c0.4-0.5,0.9-0.8,1.5-1.1c0.5-0.2,1.1-0.4,1.7-0.4c0.6,0,1.2,0.1,1.7,0.3
		c0.5,0.2,0.9,0.5,1.3,1c0.3,0.4,0.6,0.9,0.8,1.5c0.2,0.6,0.3,1.2,0.3,2c0,0.2,0,0.4,0,0.5c0,0.2,0,0.3-0.1,0.4h-6.9
		c0.1,1.1,0.4,1.9,1,2.6c0.6,0.6,1.4,1,2.4,1c0.5,0,0.9-0.1,1.3-0.2c0.4-0.1,0.8-0.3,1.2-0.6l0.6,1.1c-0.4,0.3-0.9,0.5-1.5,0.7
		C215.8,101.8,215.2,101.9,214.5,101.9z M211.3,95.7h5.4c0-1-0.2-1.8-0.7-2.4c-0.4-0.5-1.1-0.8-1.9-0.8c-0.4,0-0.7,0.1-1,0.2
		c-0.3,0.1-0.6,0.3-0.9,0.6c-0.3,0.3-0.5,0.6-0.7,1C211.4,94.8,211.3,95.2,211.3,95.7z"/>
	<path class="st1" d="M225.1,101.6V87.9h1.8l5,8.6l1.5,2.8h0.1c0-0.7-0.1-1.4-0.1-2.2c0-0.7-0.1-1.5-0.1-2.2v-7.1h1.7v13.7H233
		l-5-8.6l-1.5-2.8h-0.1c0.1,0.7,0.1,1.4,0.2,2.1c0,0.7,0.1,1.4,0.1,2.2v7.2H225.1z"/>
	<path class="st1" d="M242.6,101.9c-0.7,0-1.3-0.1-1.9-0.4c-0.6-0.2-1.1-0.6-1.5-1c-0.4-0.5-0.8-1-1-1.7s-0.4-1.4-0.4-2.2
		c0-0.8,0.1-1.6,0.4-2.2s0.6-1.2,1-1.7c0.4-0.5,0.9-0.8,1.5-1.1c0.5-0.2,1.1-0.4,1.7-0.4c0.6,0,1.2,0.1,1.7,0.3
		c0.5,0.2,0.9,0.5,1.3,1c0.3,0.4,0.6,0.9,0.8,1.5c0.2,0.6,0.3,1.2,0.3,2c0,0.2,0,0.4,0,0.5c0,0.2,0,0.3-0.1,0.4h-6.9
		c0.1,1.1,0.4,1.9,1,2.6c0.6,0.6,1.4,1,2.4,1c0.5,0,0.9-0.1,1.3-0.2s0.8-0.3,1.2-0.6l0.6,1.1c-0.4,0.3-0.9,0.5-1.5,0.7
		S243.3,101.9,242.6,101.9z M239.4,95.7h5.4c0-1-0.2-1.8-0.7-2.4c-0.4-0.5-1.1-0.8-1.9-0.8c-0.4,0-0.7,0.1-1,0.2
		c-0.3,0.1-0.6,0.3-0.9,0.6c-0.3,0.3-0.5,0.6-0.7,1C239.5,94.8,239.4,95.2,239.4,95.7z"/>
	<path class="st1" d="M250.5,101.6l-2.8-10.2h1.8l1.5,5.9c0.1,0.5,0.2,1,0.3,1.4c0.1,0.5,0.2,0.9,0.3,1.4h0.1
		c0.1-0.5,0.2-0.9,0.3-1.4c0.1-0.5,0.2-0.9,0.4-1.4l1.6-5.9h1.7l1.6,5.9c0.1,0.5,0.2,1,0.4,1.4c0.1,0.5,0.2,0.9,0.3,1.4h0.1
		c0.1-0.5,0.2-0.9,0.3-1.4c0.1-0.5,0.2-0.9,0.3-1.4l1.5-5.9h1.6l-2.7,10.2h-2.1l-1.5-5.5c-0.1-0.5-0.2-1-0.3-1.4s-0.2-1-0.3-1.5
		h-0.1c-0.1,0.5-0.2,1-0.3,1.5c-0.1,0.5-0.2,1-0.4,1.5l-1.4,5.4H250.5z"/>
	<path class="st1" d="M269.8,101.6l-2.9-13.7h1.8l1.4,7.5c0.1,0.8,0.3,1.5,0.4,2.2c0.1,0.7,0.3,1.5,0.4,2.2h0.1
		c0.2-0.8,0.3-1.5,0.5-2.2c0.2-0.7,0.3-1.5,0.5-2.2l1.9-7.5h1.6l1.9,7.5c0.2,0.7,0.3,1.5,0.5,2.2c0.2,0.7,0.3,1.5,0.5,2.2h0.1
		c0.1-0.8,0.3-1.5,0.4-2.2c0.1-0.7,0.3-1.5,0.4-2.2l1.4-7.5h1.7l-2.8,13.7h-2.1l-2.1-8.3c-0.1-0.5-0.2-1-0.3-1.6s-0.2-1-0.3-1.6
		h-0.1c-0.1,0.5-0.2,1-0.3,1.6s-0.2,1-0.3,1.6l-2,8.3H269.8z"/>
	<path class="st1" d="M288.7,101.9c-0.7,0-1.3-0.1-1.9-0.4c-0.6-0.2-1.1-0.6-1.5-1c-0.4-0.5-0.8-1-1-1.7s-0.4-1.4-0.4-2.2
		c0-0.8,0.1-1.6,0.4-2.2s0.6-1.2,1-1.7c0.4-0.5,0.9-0.8,1.5-1.1c0.5-0.2,1.1-0.4,1.7-0.4c0.6,0,1.2,0.1,1.7,0.3
		c0.5,0.2,0.9,0.5,1.3,1c0.3,0.4,0.6,0.9,0.8,1.5c0.2,0.6,0.3,1.2,0.3,2c0,0.2,0,0.4,0,0.5c0,0.2,0,0.3-0.1,0.4h-6.9
		c0.1,1.1,0.4,1.9,1,2.6c0.6,0.6,1.4,1,2.4,1c0.5,0,0.9-0.1,1.3-0.2s0.8-0.3,1.2-0.6l0.6,1.1c-0.4,0.3-0.9,0.5-1.5,0.7
		S289.4,101.9,288.7,101.9z M285.5,95.7h5.4c0-1-0.2-1.8-0.7-2.4c-0.4-0.5-1.1-0.8-1.9-0.8c-0.4,0-0.7,0.1-1,0.2
		c-0.3,0.1-0.6,0.3-0.9,0.6c-0.3,0.3-0.5,0.6-0.7,1C285.6,94.8,285.5,95.2,285.5,95.7z"/>
	<path class="st1" d="M297,101.9c-0.9,0-1.6-0.3-2.1-0.8S294,99.9,294,99c0-1.1,0.5-2,1.5-2.6c1-0.6,2.6-1,4.7-1.2
		c0-0.3,0-0.6-0.1-0.9c-0.1-0.3-0.2-0.6-0.3-0.8c-0.2-0.2-0.4-0.4-0.6-0.6c-0.3-0.1-0.6-0.2-1-0.2c-0.6,0-1.1,0.1-1.7,0.3
		c-0.5,0.2-1,0.5-1.4,0.8l-0.7-1.2c0.5-0.3,1.1-0.6,1.7-0.9c0.7-0.3,1.4-0.4,2.3-0.4c1.2,0,2.1,0.4,2.7,1.1s0.8,1.8,0.8,3v6.2h-1.4
		l-0.1-1.2h-0.1c-0.5,0.4-1,0.8-1.6,1C298.2,101.7,297.6,101.9,297,101.9z M297.5,100.5c0.5,0,0.9-0.1,1.4-0.3
		c0.4-0.2,0.9-0.6,1.4-1v-2.8c-0.9,0.1-1.6,0.2-2.1,0.4c-0.6,0.2-1,0.3-1.4,0.5s-0.6,0.4-0.8,0.7c-0.2,0.3-0.2,0.6-0.2,0.9
		c0,0.6,0.2,1,0.5,1.3C296.5,100.4,297,100.5,297.5,100.5z"/>
	<path class="st1" d="M307,101.9c-0.7,0-1.1-0.2-1.4-0.6c-0.3-0.4-0.4-1-0.4-1.7V86.7h1.7v13c0,0.3,0,0.5,0.1,0.6
		c0.1,0.1,0.2,0.2,0.3,0.2c0.1,0,0.1,0,0.2,0s0.1,0,0.2,0l0.2,1.3c-0.1,0.1-0.2,0.1-0.4,0.1S307.2,101.9,307,101.9z"/>
	<path class="st1" d="M313.7,101.9c-0.5,0-1-0.1-1.4-0.3s-0.7-0.4-0.9-0.7c-0.2-0.3-0.4-0.6-0.5-1.1c-0.1-0.4-0.1-0.9-0.1-1.4v-5.6
		h-1.5v-1.3l1.6-0.1l0.2-2.8h1.4v2.8h2.7v1.4h-2.7v5.6c0,0.6,0.1,1.1,0.3,1.5c0.2,0.3,0.6,0.5,1.2,0.5c0.2,0,0.4,0,0.6-0.1
		s0.4-0.1,0.6-0.2l0.3,1.3c-0.3,0.1-0.6,0.2-0.9,0.3C314.3,101.8,314,101.9,313.7,101.9z"/>
	<path class="st1" d="M317.6,101.6V86.7h1.7v4.1l-0.1,2.1c0.5-0.5,1-0.9,1.5-1.2c0.5-0.3,1.1-0.5,1.9-0.5c1.1,0,1.9,0.3,2.4,1
		c0.5,0.7,0.7,1.7,0.7,3v6.4H324v-6.2c0-1-0.2-1.7-0.5-2.1c-0.3-0.4-0.8-0.6-1.5-0.6c-0.5,0-1,0.1-1.4,0.4s-0.9,0.7-1.4,1.2v7.4
		H317.6z"/>
	<path class="st1" d="M333.3,101.6V87.9h7.9v1.5H335v4.3h5.2v1.5H335v5h6.4v1.5H333.3z"/>
	<path class="st1" d="M342.1,101.6l3.3-5.3l-3.1-4.9h1.9l1.4,2.2c0.2,0.3,0.3,0.6,0.5,0.8c0.2,0.3,0.3,0.6,0.5,0.8h0.1
		c0.2-0.3,0.3-0.6,0.5-0.8s0.3-0.6,0.5-0.8l1.2-2.2h1.8l-3.1,5l3.3,5.1h-1.9l-1.5-2.4c-0.2-0.3-0.4-0.6-0.5-0.9
		c-0.2-0.3-0.4-0.6-0.6-0.9h-0.1c-0.2,0.3-0.4,0.6-0.5,0.9c-0.2,0.3-0.3,0.6-0.5,0.9l-1.4,2.4H342.1z"/>
	<path class="st1" d="M352.8,105.9V91.4h1.4l0.1,1.2h0.1c0.5-0.4,1-0.7,1.5-1s1.1-0.4,1.7-0.4c0.7,0,1.2,0.1,1.7,0.4
		c0.5,0.2,0.9,0.6,1.3,1s0.6,1,0.8,1.6c0.2,0.6,0.3,1.3,0.3,2.1c0,0.9-0.1,1.6-0.4,2.3c-0.2,0.7-0.6,1.3-1,1.7
		c-0.4,0.5-0.9,0.8-1.4,1.1c-0.5,0.2-1.1,0.4-1.7,0.4c-0.5,0-0.9-0.1-1.4-0.3s-0.9-0.5-1.4-0.9l0,1.8v3.4H352.8z M357,100.4
		c0.4,0,0.8-0.1,1.2-0.3c0.4-0.2,0.7-0.5,0.9-0.8s0.5-0.8,0.6-1.3s0.2-1.1,0.2-1.7c0-0.6,0-1.1-0.1-1.5s-0.3-0.9-0.5-1.2
		c-0.2-0.3-0.5-0.6-0.8-0.8c-0.3-0.2-0.8-0.3-1.2-0.3c-0.4,0-0.9,0.1-1.3,0.4s-0.9,0.6-1.4,1v5.3c0.5,0.4,0.9,0.7,1.3,0.8
		C356.3,100.3,356.7,100.4,357,100.4z"/>
	<path class="st1" d="M368.5,101.9c-0.7,0-1.3-0.1-1.9-0.4c-0.6-0.2-1.1-0.6-1.5-1c-0.4-0.5-0.8-1-1-1.7s-0.4-1.4-0.4-2.2
		c0-0.8,0.1-1.6,0.4-2.2s0.6-1.2,1-1.7c0.4-0.5,0.9-0.8,1.5-1.1c0.5-0.2,1.1-0.4,1.7-0.4c0.6,0,1.2,0.1,1.7,0.3
		c0.5,0.2,0.9,0.5,1.3,1c0.3,0.4,0.6,0.9,0.8,1.5c0.2,0.6,0.3,1.2,0.3,2c0,0.2,0,0.4,0,0.5c0,0.2,0,0.3-0.1,0.4h-6.9
		c0.1,1.1,0.4,1.9,1,2.6c0.6,0.6,1.4,1,2.4,1c0.5,0,0.9-0.1,1.3-0.2s0.8-0.3,1.2-0.6l0.6,1.1c-0.4,0.3-0.9,0.5-1.5,0.7
		S369.2,101.9,368.5,101.9z M365.3,95.7h5.4c0-1-0.2-1.8-0.7-2.4c-0.4-0.5-1.1-0.8-1.9-0.8c-0.4,0-0.7,0.1-1,0.2
		c-0.3,0.1-0.6,0.3-0.9,0.6c-0.3,0.3-0.5,0.6-0.7,1C365.5,94.8,365.4,95.2,365.3,95.7z"/>
	<path class="st1" d="M374.8,101.6V91.4h1.4l0.1,1.8h0.1c0.3-0.6,0.8-1.2,1.3-1.5c0.5-0.4,1-0.6,1.6-0.6c0.4,0,0.8,0.1,1.1,0.2
		l-0.3,1.5c-0.2-0.1-0.3-0.1-0.5-0.1c-0.1,0-0.3,0-0.5,0c-0.4,0-0.9,0.2-1.3,0.5c-0.5,0.3-0.9,1-1.2,1.8v6.5H374.8z"/>
	<path class="st1" d="M382.9,89.4c-0.3,0-0.6-0.1-0.8-0.3c-0.2-0.2-0.3-0.5-0.3-0.8c0-0.3,0.1-0.6,0.3-0.8c0.2-0.2,0.5-0.3,0.8-0.3
		c0.3,0,0.6,0.1,0.8,0.3c0.2,0.2,0.3,0.5,0.3,0.8c0,0.3-0.1,0.6-0.3,0.8C383.5,89.2,383.3,89.4,382.9,89.4z M382,101.6V91.4h1.7
		v10.2H382z"/>
	<path class="st1" d="M391.3,101.9c-0.7,0-1.3-0.1-1.9-0.4c-0.6-0.2-1.1-0.6-1.5-1c-0.4-0.5-0.8-1-1-1.7s-0.4-1.4-0.4-2.2
		c0-0.8,0.1-1.6,0.4-2.2s0.6-1.2,1-1.7c0.4-0.5,0.9-0.8,1.5-1.1c0.5-0.2,1.1-0.4,1.7-0.4c0.6,0,1.2,0.1,1.7,0.3
		c0.5,0.2,0.9,0.5,1.3,1c0.3,0.4,0.6,0.9,0.8,1.5c0.2,0.6,0.3,1.2,0.3,2c0,0.2,0,0.4,0,0.5c0,0.2,0,0.3-0.1,0.4h-6.9
		c0.1,1.1,0.4,1.9,1,2.6c0.6,0.6,1.4,1,2.4,1c0.5,0,0.9-0.1,1.3-0.2s0.8-0.3,1.2-0.6l0.6,1.1c-0.4,0.3-0.9,0.5-1.5,0.7
		S392,101.9,391.3,101.9z M388.1,95.7h5.4c0-1-0.2-1.8-0.7-2.4c-0.4-0.5-1.1-0.8-1.9-0.8c-0.4,0-0.7,0.1-1,0.2
		c-0.3,0.1-0.6,0.3-0.9,0.6c-0.3,0.3-0.5,0.6-0.7,1C388.3,94.8,388.2,95.2,388.1,95.7z"/>
	<path class="st1" d="M397.6,101.6V91.4h1.4l0.1,1.5h0.1c0.5-0.5,1-0.9,1.5-1.2c0.5-0.3,1.2-0.5,1.9-0.5c1.1,0,1.9,0.3,2.4,1
		c0.5,0.7,0.7,1.7,0.7,3v6.4H404v-6.2c0-1-0.2-1.7-0.5-2.1c-0.3-0.4-0.8-0.6-1.5-0.6c-0.5,0-1,0.1-1.4,0.4s-0.9,0.7-1.4,1.2v7.4
		H397.6z"/>
	<path class="st1" d="M413,101.9c-0.7,0-1.3-0.1-1.9-0.4c-0.6-0.2-1.1-0.6-1.5-1c-0.4-0.5-0.8-1-1-1.7c-0.2-0.7-0.4-1.4-0.4-2.2
		c0-0.8,0.1-1.6,0.4-2.3c0.3-0.7,0.6-1.2,1.1-1.7s1-0.8,1.6-1c0.6-0.2,1.2-0.4,1.9-0.4c0.7,0,1.2,0.1,1.7,0.4
		c0.5,0.2,0.9,0.5,1.3,0.8l-0.9,1.1c-0.3-0.3-0.6-0.5-0.9-0.6c-0.3-0.2-0.7-0.3-1.1-0.3c-0.5,0-0.9,0.1-1.3,0.3
		c-0.4,0.2-0.7,0.5-1,0.8c-0.3,0.3-0.5,0.8-0.7,1.2c-0.2,0.5-0.2,1-0.2,1.6c0,0.6,0.1,1.1,0.2,1.6c0.2,0.5,0.4,0.9,0.6,1.2
		c0.3,0.3,0.6,0.6,1,0.8c0.4,0.2,0.8,0.3,1.3,0.3c0.5,0,0.9-0.1,1.3-0.3c0.4-0.2,0.8-0.4,1.1-0.7l0.8,1.1c-0.5,0.4-1,0.7-1.5,1
		C414.2,101.7,413.6,101.9,413,101.9z"/>
	<path class="st1" d="M422.2,101.9c-0.7,0-1.3-0.1-1.9-0.4c-0.6-0.2-1.1-0.6-1.5-1c-0.4-0.5-0.8-1-1-1.7s-0.4-1.4-0.4-2.2
		c0-0.8,0.1-1.6,0.4-2.2s0.6-1.2,1-1.7c0.4-0.5,0.9-0.8,1.5-1.1c0.5-0.2,1.1-0.4,1.7-0.4c0.6,0,1.2,0.1,1.7,0.3
		c0.5,0.2,0.9,0.5,1.3,1c0.3,0.4,0.6,0.9,0.8,1.5c0.2,0.6,0.3,1.2,0.3,2c0,0.2,0,0.4,0,0.5c0,0.2,0,0.3-0.1,0.4H419
		c0.1,1.1,0.4,1.9,1,2.6c0.6,0.6,1.4,1,2.4,1c0.5,0,0.9-0.1,1.3-0.2s0.8-0.3,1.2-0.6l0.6,1.1c-0.4,0.3-0.9,0.5-1.5,0.7
		S422.9,101.9,422.2,101.9z M419,95.7h5.4c0-1-0.2-1.8-0.7-2.4c-0.4-0.5-1.1-0.8-1.9-0.8c-0.4,0-0.7,0.1-1,0.2
		c-0.3,0.1-0.6,0.3-0.9,0.6c-0.3,0.3-0.5,0.6-0.7,1C419.2,94.8,419.1,95.2,419,95.7z"/>
	<path class="st1" d="M429.4,101.9c-0.3,0-0.6-0.1-0.9-0.4c-0.2-0.2-0.4-0.6-0.4-0.9c0-0.4,0.1-0.7,0.4-1c0.2-0.2,0.5-0.4,0.9-0.4
		c0.3,0,0.6,0.1,0.9,0.4s0.4,0.6,0.4,1c0,0.4-0.1,0.7-0.4,0.9C430,101.7,429.7,101.9,429.4,101.9z"/>
</g>
<g>
	<polygon class="st2" points="52.2,54.6 28.3,78.6 57.7,107.9 109.1,56.5 90.7,38.1 63.2,65.6 59.6,62 59.6,62 52.2,54.6 	"/>
	<polygon class="st3" points="63.2,58.4 87.1,34.5 57.7,5.1 6.3,56.5 24.7,75 48.6,51.1 48.6,51 52.2,47.5 52.2,47.5 52.2,47.5 
		55.8,51 55.8,51.1 63.2,58.4 	"/>
</g>
</svg>